<?xml version="1.0" encoding="us-ascii" standalone="no"?><svg xmlns="http://www.w3.org/2000/svg" xmlns:xlink="http://www.w3.org/1999/xlink" contentStyleType="text/css" height="1297px" preserveAspectRatio="none" style="width:2614px;height:1297px;background:#FFFFFF;" version="1.1" viewBox="0 0 2614 1297" width="2614px" zoomAndPan="magnify"><defs/><g><text fill="#000000" font-family="sans-serif" font-size="14" font-weight="bold" lengthAdjust="spacing" textLength="268" x="1174.25" y="30.1074">Sequence Diagram - &#272;&#259;ng k&#253; t&#224;i kho&#7843;n</text><rect fill="#FFFFFF" height="1025.4473" style="stroke:#696969;stroke-width:1.0;" width="10" x="40" y="151.8633"/><rect fill="#FFFFFF" height="1025.4473" style="stroke:#696969;stroke-width:1.0;" width="10" x="363" y="151.8633"/><rect fill="#FFFFFF" height="922.2832" style="stroke:#696969;stroke-width:1.0;" width="10" x="702" y="223.7363"/><rect fill="#FFFFFF" height="842.4102" style="stroke:#696969;stroke-width:1.0;" width="10" x="906" y="272.3184"/><rect fill="#FFFFFF" height="762.5371" style="stroke:#696969;stroke-width:1.0;" width="10" x="1238" y="320.9004"/><rect fill="#FFFFFF" height="682.6641" style="stroke:#696969;stroke-width:1.0;" width="10" x="1637" y="369.4824"/><rect fill="#FFFFFF" height="492.9473" style="stroke:#696969;stroke-width:1.0;" width="10" x="1915" y="418.0645"/><rect fill="#FFFFFF" height="31.291" style="stroke:#696969;stroke-width:1.0;" width="10" x="2156" y="618.1016"/><rect fill="#FFFFFF" height="93.873" style="stroke:#696969;stroke-width:1.0;" width="10" x="2259" y="466.6465"/><rect fill="#FFFFFF" height="111.1641" style="stroke:#696969;stroke-width:1.0;" width="10" x="2259" y="768.5566"/><rect fill="#FFFFFF" height="31.291" style="stroke:#696969;stroke-width:1.0;" width="10" x="2532" y="497.9375"/><rect fill="#FFFFFF" height="31.291" style="stroke:#696969;stroke-width:1.0;" width="10" x="2532" y="817.1387"/><rect fill="none" height="446.3359" rx="3.5" ry="3.5" style="stroke:#696969;stroke-width:1.0;" width="1053.5" x="1554" y="575.5195"/><rect fill="none" height="302.541" rx="3.5" ry="3.5" style="stroke:#696969;stroke-width:1.0;" width="1033.5" x="1564" y="664.3926"/><line style="stroke:#696969;stroke-width:0.5;stroke-dasharray:5.0,5.0;" x1="45" x2="45" y1="141.8633" y2="1195.3105"/><line style="stroke:#696969;stroke-width:0.5;stroke-dasharray:5.0,5.0;" x1="367.5" x2="367.5" y1="141.8633" y2="1195.3105"/><line style="stroke:#696969;stroke-width:0.5;stroke-dasharray:5.0,5.0;" x1="707" x2="707" y1="141.8633" y2="1195.3105"/><line style="stroke:#696969;stroke-width:0.5;stroke-dasharray:5.0,5.0;" x1="910.5" x2="910.5" y1="141.8633" y2="1195.3105"/><line style="stroke:#696969;stroke-width:0.5;stroke-dasharray:5.0,5.0;" x1="1243" x2="1243" y1="141.8633" y2="1195.3105"/><line style="stroke:#696969;stroke-width:0.5;stroke-dasharray:5.0,5.0;" x1="1642" x2="1642" y1="141.8633" y2="1195.3105"/><line style="stroke:#696969;stroke-width:0.5;stroke-dasharray:5.0,5.0;" x1="1920" x2="1920" y1="141.8633" y2="1195.3105"/><line style="stroke:#696969;stroke-width:0.5;stroke-dasharray:5.0,5.0;" x1="2161" x2="2161" y1="141.8633" y2="1195.3105"/><line style="stroke:#696969;stroke-width:0.5;stroke-dasharray:5.0,5.0;" x1="2264" x2="2264" y1="141.8633" y2="1195.3105"/><line style="stroke:#696969;stroke-width:0.5;stroke-dasharray:5.0,5.0;" x1="2536.5" x2="2536.5" y1="141.8633" y2="1195.3105"/><text fill="#454645" font-family="sans-serif" font-size="14" lengthAdjust="spacing" textLength="74" x="5" y="119.7285">Ng&#432;&#7901;i d&#249;ng</text><text fill="#454645" font-family="sans-serif" font-size="14" lengthAdjust="spacing" textLength="4" x="40" y="138.3496">&#160;</text><ellipse cx="45" cy="53.1211" fill="#454645" rx="8" ry="8" style="stroke:#454645;stroke-width:0.5;"/><path d="M45,61.1211 L45,88.1211 M32,69.1211 L58,69.1211 M45,88.1211 L32,103.1211 M45,88.1211 L58,103.1211 " fill="none" style="stroke:#454645;stroke-width:0.5;"/><text fill="#454645" font-family="sans-serif" font-size="14" lengthAdjust="spacing" textLength="74" x="5" y="1209.418">Ng&#432;&#7901;i d&#249;ng</text><text fill="#454645" font-family="sans-serif" font-size="14" lengthAdjust="spacing" textLength="4" x="40" y="1228.0391">&#160;</text><ellipse cx="45" cy="1240.0527" fill="#454645" rx="8" ry="8" style="stroke:#454645;stroke-width:0.5;"/><path d="M45,1248.0527 L45,1275.0527 M32,1256.0527 L58,1256.0527 M45,1275.0527 L32,1290.0527 M45,1275.0527 L58,1290.0527 " fill="none" style="stroke:#454645;stroke-width:0.5;"/><text fill="#454645" font-family="sans-serif" font-size="14" lengthAdjust="spacing" textLength="87" x="321.5" y="119.7285">Giao di&#7879;n (UI)</text><text fill="#454645" font-family="sans-serif" font-size="14" lengthAdjust="spacing" textLength="4" x="363" y="138.3496">&#160;</text><path d="M347.5,76.6211 L347.5,100.6211 M347.5,88.6211 L364.5,88.6211 " fill="none" style="stroke:#454645;stroke-width:0.5;"/><ellipse cx="376.5" cy="88.6211" fill="#FFE552" rx="12" ry="12" style="stroke:#454645;stroke-width:0.5;"/><text fill="#454645" font-family="sans-serif" font-size="14" lengthAdjust="spacing" textLength="87" x="321.5" y="1209.418">Giao di&#7879;n (UI)</text><text fill="#454645" font-family="sans-serif" font-size="14" lengthAdjust="spacing" textLength="4" x="363" y="1228.0391">&#160;</text><path d="M347.5,1235.5527 L347.5,1259.5527 M347.5,1247.5527 L364.5,1247.5527 " fill="none" style="stroke:#454645;stroke-width:0.5;"/><ellipse cx="376.5" cy="1247.5527" fill="#FFE552" rx="12" ry="12" style="stroke:#454645;stroke-width:0.5;"/><rect fill="#FF6347" height="51.2422" rx="3.5" ry="3.5" style="stroke:#454645;stroke-width:1.5;" width="132" x="641" y="89.6211"/><text fill="#FFFFFF" font-family="sans-serif" font-size="14" lengthAdjust="spacing" textLength="118" x="648" y="111.7285">CommonController</text><text fill="#FFFFFF" font-family="sans-serif" font-size="14" lengthAdjust="spacing" textLength="68" x="673" y="130.3496">(Web App)</text><rect fill="#FF6347" height="51.2422" rx="3.5" ry="3.5" style="stroke:#454645;stroke-width:1.5;" width="132" x="641" y="1194.3105"/><text fill="#FFFFFF" font-family="sans-serif" font-size="14" lengthAdjust="spacing" textLength="118" x="648" y="1216.418">CommonController</text><text fill="#FFFFFF" font-family="sans-serif" font-size="14" lengthAdjust="spacing" textLength="68" x="673" y="1235.0391">(Web App)</text><rect fill="#FF6347" height="51.2422" rx="3.5" ry="3.5" style="stroke:#454645;stroke-width:1.5;" width="93" x="864.5" y="89.6211"/><text fill="#FFFFFF" font-family="sans-serif" font-size="14" lengthAdjust="spacing" textLength="79" x="871.5" y="111.7285">IUserService</text><text fill="#FFFFFF" font-family="sans-serif" font-size="14" lengthAdjust="spacing" textLength="68" x="877" y="130.3496">(Web App)</text><rect fill="#FF6347" height="51.2422" rx="3.5" ry="3.5" style="stroke:#454645;stroke-width:1.5;" width="93" x="864.5" y="1194.3105"/><text fill="#FFFFFF" font-family="sans-serif" font-size="14" lengthAdjust="spacing" textLength="79" x="871.5" y="1216.418">IUserService</text><text fill="#FFFFFF" font-family="sans-serif" font-size="14" lengthAdjust="spacing" textLength="68" x="877" y="1235.0391">(Web App)</text><rect fill="#FF6347" height="51.2422" rx="3.5" ry="3.5" style="stroke:#454645;stroke-width:1.5;" width="94" x="1196" y="89.6211"/><text fill="#FFFFFF" font-family="sans-serif" font-size="14" lengthAdjust="spacing" textLength="80" x="1203" y="111.7285">API Gateway</text><text fill="#FFFFFF" font-family="sans-serif" font-size="14" lengthAdjust="spacing" textLength="4" x="1241" y="130.3496">&#160;</text><rect fill="#FF6347" height="51.2422" rx="3.5" ry="3.5" style="stroke:#454645;stroke-width:1.5;" width="94" x="1196" y="1194.3105"/><text fill="#FFFFFF" font-family="sans-serif" font-size="14" lengthAdjust="spacing" textLength="80" x="1203" y="1216.418">API Gateway</text><text fill="#FFFFFF" font-family="sans-serif" font-size="14" lengthAdjust="spacing" textLength="4" x="1241" y="1235.0391">&#160;</text><rect fill="#FF6347" height="51.2422" rx="3.5" ry="3.5" style="stroke:#454645;stroke-width:1.5;" width="136" x="1574" y="89.6211"/><text fill="#FFFFFF" font-family="sans-serif" font-size="14" lengthAdjust="spacing" textLength="98" x="1593" y="111.7285">UsersController</text><text fill="#FFFFFF" font-family="sans-serif" font-size="14" lengthAdjust="spacing" textLength="122" x="1581" y="130.3496">(User Microservice)</text><rect fill="#FF6347" height="51.2422" rx="3.5" ry="3.5" style="stroke:#454645;stroke-width:1.5;" width="136" x="1574" y="1194.3105"/><text fill="#FFFFFF" font-family="sans-serif" font-size="14" lengthAdjust="spacing" textLength="98" x="1593" y="1216.418">UsersController</text><text fill="#FFFFFF" font-family="sans-serif" font-size="14" lengthAdjust="spacing" textLength="122" x="1581" y="1235.0391">(User Microservice)</text><rect fill="#FF6347" height="51.2422" rx="3.5" ry="3.5" style="stroke:#454645;stroke-width:1.5;" width="136" x="1852" y="89.6211"/><text fill="#FFFFFF" font-family="sans-serif" font-size="14" lengthAdjust="spacing" textLength="79" x="1880.5" y="111.7285">IUserService</text><text fill="#FFFFFF" font-family="sans-serif" font-size="14" lengthAdjust="spacing" textLength="122" x="1859" y="130.3496">(User Microservice)</text><rect fill="#FF6347" height="51.2422" rx="3.5" ry="3.5" style="stroke:#454645;stroke-width:1.5;" width="136" x="1852" y="1194.3105"/><text fill="#FFFFFF" font-family="sans-serif" font-size="14" lengthAdjust="spacing" textLength="79" x="1880.5" y="1216.418">IUserService</text><text fill="#FFFFFF" font-family="sans-serif" font-size="14" lengthAdjust="spacing" textLength="122" x="1859" y="1235.0391">(User Microservice)</text><rect fill="#FF6347" height="51.2422" rx="3.5" ry="3.5" style="stroke:#454645;stroke-width:1.5;" width="72" x="2125" y="89.6211"/><text fill="#FFFFFF" font-family="sans-serif" font-size="14" lengthAdjust="spacing" textLength="58" x="2132" y="111.7285">AI Server</text><text fill="#FFFFFF" font-family="sans-serif" font-size="14" lengthAdjust="spacing" textLength="4" x="2159" y="130.3496">&#160;</text><rect fill="#FF6347" height="51.2422" rx="3.5" ry="3.5" style="stroke:#454645;stroke-width:1.5;" width="72" x="2125" y="1194.3105"/><text fill="#FFFFFF" font-family="sans-serif" font-size="14" lengthAdjust="spacing" textLength="58" x="2132" y="1216.418">AI Server</text><text fill="#FFFFFF" font-family="sans-serif" font-size="14" lengthAdjust="spacing" textLength="4" x="2159" y="1235.0391">&#160;</text><rect fill="#FF6347" height="51.2422" rx="3.5" ry="3.5" style="stroke:#454645;stroke-width:1.5;" width="114" x="2207" y="89.6211"/><text fill="#FFFFFF" font-family="sans-serif" font-size="14" lengthAdjust="spacing" textLength="100" x="2214" y="111.7285">IUserRepository</text><text fill="#FFFFFF" font-family="sans-serif" font-size="14" lengthAdjust="spacing" textLength="78" x="2225" y="130.3496">(Repository)</text><rect fill="#FF6347" height="51.2422" rx="3.5" ry="3.5" style="stroke:#454645;stroke-width:1.5;" width="114" x="2207" y="1194.3105"/><text fill="#FFFFFF" font-family="sans-serif" font-size="14" lengthAdjust="spacing" textLength="100" x="2214" y="1216.418">IUserRepository</text><text fill="#FFFFFF" font-family="sans-serif" font-size="14" lengthAdjust="spacing" textLength="78" x="2225" y="1235.0391">(Repository)</text><text fill="#454645" font-family="sans-serif" font-size="14" lengthAdjust="spacing" textLength="95" x="2486.5" y="119.7285">UserDbContext</text><text fill="#454645" font-family="sans-serif" font-size="14" lengthAdjust="spacing" textLength="71" x="2498.5" y="138.3496">(Database)</text><path d="M2519,68.6211 C2519,58.6211 2537,58.6211 2537,58.6211 C2537,58.6211 2555,58.6211 2555,68.6211 L2555,94.6211 C2555,104.6211 2537,104.6211 2537,104.6211 C2537,104.6211 2519,104.6211 2519,94.6211 L2519,68.6211 " fill="#00FFFF" style="stroke:#454645;stroke-width:1.5;"/><path d="M2519,68.6211 C2519,78.6211 2537,78.6211 2537,78.6211 C2537,78.6211 2555,78.6211 2555,68.6211 " fill="none" style="stroke:#454645;stroke-width:1.5;"/><text fill="#454645" font-family="sans-serif" font-size="14" lengthAdjust="spacing" textLength="95" x="2486.5" y="1209.418">UserDbContext</text><text fill="#454645" font-family="sans-serif" font-size="14" lengthAdjust="spacing" textLength="71" x="2498.5" y="1228.0391">(Database)</text><path d="M2519,1241.5527 C2519,1231.5527 2537,1231.5527 2537,1231.5527 C2537,1231.5527 2555,1231.5527 2555,1241.5527 L2555,1267.5527 C2555,1277.5527 2537,1277.5527 2537,1277.5527 C2537,1277.5527 2519,1277.5527 2519,1267.5527 L2519,1241.5527 " fill="#00FFFF" style="stroke:#454645;stroke-width:1.5;"/><path d="M2519,1241.5527 C2519,1251.5527 2537,1251.5527 2537,1251.5527 C2537,1251.5527 2555,1251.5527 2555,1241.5527 " fill="none" style="stroke:#454645;stroke-width:1.5;"/><rect fill="#FFFFFF" height="1025.4473" style="stroke:#696969;stroke-width:1.0;" width="10" x="40" y="151.8633"/><rect fill="#FFFFFF" height="1025.4473" style="stroke:#696969;stroke-width:1.0;" width="10" x="363" y="151.8633"/><rect fill="#FFFFFF" height="922.2832" style="stroke:#696969;stroke-width:1.0;" width="10" x="702" y="223.7363"/><rect fill="#FFFFFF" height="842.4102" style="stroke:#696969;stroke-width:1.0;" width="10" x="906" y="272.3184"/><rect fill="#FFFFFF" height="762.5371" style="stroke:#696969;stroke-width:1.0;" width="10" x="1238" y="320.9004"/><rect fill="#FFFFFF" height="682.6641" style="stroke:#696969;stroke-width:1.0;" width="10" x="1637" y="369.4824"/><rect fill="#FFFFFF" height="492.9473" style="stroke:#696969;stroke-width:1.0;" width="10" x="1915" y="418.0645"/><rect fill="#FFFFFF" height="31.291" style="stroke:#696969;stroke-width:1.0;" width="10" x="2156" y="618.1016"/><rect fill="#FFFFFF" height="93.873" style="stroke:#696969;stroke-width:1.0;" width="10" x="2259" y="466.6465"/><rect fill="#FFFFFF" height="111.1641" style="stroke:#696969;stroke-width:1.0;" width="10" x="2259" y="768.5566"/><rect fill="#FFFFFF" height="31.291" style="stroke:#696969;stroke-width:1.0;" width="10" x="2532" y="497.9375"/><rect fill="#FFFFFF" height="31.291" style="stroke:#696969;stroke-width:1.0;" width="10" x="2532" y="817.1387"/><polygon fill="#343A40" points="351,171.1543,361,175.1543,351,179.1543,355,175.1543" style="stroke:#343A40;stroke-width:1.0;"/><line style="stroke:#343A40;stroke-width:1.0;" x1="50" x2="357" y1="175.1543" y2="175.1543"/><text fill="#000000" font-family="sans-serif" font-size="13" lengthAdjust="spacing" textLength="289" x="57" y="169.8916">1. Nh&#7853;p th&#244;ng tin (CustomerRegisterRequestDTO)</text><polygon fill="#343A40" points="690,219.7363,700,223.7363,690,227.7363,694,223.7363" style="stroke:#343A40;stroke-width:1.0;"/><line style="stroke:#343A40;stroke-width:1.0;" x1="373" x2="696" y1="223.7363" y2="223.7363"/><text fill="#000000" font-family="sans-serif" font-size="13" lengthAdjust="spacing" textLength="88" x="380" y="201.1826">2. G&#7917;i request:</text><text fill="#000000" font-family="sans-serif" font-size="13" font-weight="bold" lengthAdjust="spacing" textLength="52" x="380" y="218.4736">Register</text><text fill="#000000" font-family="sans-serif" font-size="13" lengthAdjust="spacing" textLength="258" x="432" y="218.4736">([FromForm] CustomerRegisterRequestDTO)</text><polygon fill="#343A40" points="894,268.3184,904,272.3184,894,276.3184,898,272.3184" style="stroke:#343A40;stroke-width:1.0;"/><line style="stroke:#343A40;stroke-width:1.0;" x1="712" x2="900" y1="272.3184" y2="272.3184"/><text fill="#000000" font-family="sans-serif" font-size="13" lengthAdjust="spacing" textLength="39" x="719" y="249.7646">3. G&#7885;i:</text><text fill="#000000" font-family="sans-serif" font-size="13" font-weight="bold" lengthAdjust="spacing" textLength="149" x="719" y="267.0557">CustomerRegisterAsync</text><text fill="#000000" font-family="sans-serif" font-size="13" lengthAdjust="spacing" textLength="26" x="868" y="267.0557">(dto)</text><polygon fill="#343A40" points="1226,316.9004,1236,320.9004,1226,324.9004,1230,320.9004" style="stroke:#343A40;stroke-width:1.0;"/><line style="stroke:#343A40;stroke-width:1.0;" x1="916" x2="1232" y1="320.9004" y2="320.9004"/><text fill="#000000" font-family="sans-serif" font-size="13" lengthAdjust="spacing" textLength="88" x="923" y="298.3467">4. G&#7917;i request:</text><text fill="#000000" font-family="sans-serif" font-size="13" font-weight="bold" lengthAdjust="spacing" textLength="191" x="923" y="315.6377">POST /users/customer-register</text><text fill="#000000" font-family="sans-serif" font-size="13" lengthAdjust="spacing" textLength="62" x="1118" y="315.6377">(form-data)</text><polygon fill="#343A40" points="1625,365.4824,1635,369.4824,1625,373.4824,1629,369.4824" style="stroke:#343A40;stroke-width:1.0;"/><line style="stroke:#343A40;stroke-width:1.0;" x1="1248" x2="1631" y1="369.4824" y2="369.4824"/><text fill="#000000" font-family="sans-serif" font-size="13" lengthAdjust="spacing" textLength="137" x="1255" y="346.9287">5. Forward request &#273;&#7871;n:</text><text fill="#000000" font-family="sans-serif" font-size="13" font-weight="bold" lengthAdjust="spacing" textLength="112" x="1255" y="364.2197">CustomerRegister</text><text fill="#000000" font-family="sans-serif" font-size="13" lengthAdjust="spacing" textLength="258" x="1367" y="364.2197">([FromForm] CustomerRegisterRequestDTO)</text><polygon fill="#343A40" points="1903,414.0645,1913,418.0645,1903,422.0645,1907,418.0645" style="stroke:#343A40;stroke-width:1.0;"/><line style="stroke:#343A40;stroke-width:1.0;" x1="1647" x2="1909" y1="418.0645" y2="418.0645"/><text fill="#000000" font-family="sans-serif" font-size="13" lengthAdjust="spacing" textLength="39" x="1654" y="395.5107">6. G&#7885;i:</text><text fill="#000000" font-family="sans-serif" font-size="13" font-weight="bold" lengthAdjust="spacing" textLength="149" x="1654" y="412.8018">CustomerRegisterAsync</text><text fill="#000000" font-family="sans-serif" font-size="13" lengthAdjust="spacing" textLength="26" x="1803" y="412.8018">(dto)</text><polygon fill="#343A40" points="2247,462.6465,2257,466.6465,2247,470.6465,2251,466.6465" style="stroke:#343A40;stroke-width:1.0;"/><line style="stroke:#343A40;stroke-width:1.0;" x1="1925" x2="2253" y1="466.6465" y2="466.6465"/><text fill="#000000" font-family="sans-serif" font-size="13" lengthAdjust="spacing" textLength="39" x="1932" y="444.0928">7. G&#7885;i:</text><text fill="#000000" font-family="sans-serif" font-size="13" font-weight="bold" lengthAdjust="spacing" textLength="139" x="1932" y="461.3838">GetUserByEmailAsync</text><text fill="#000000" font-family="sans-serif" font-size="13" lengthAdjust="spacing" textLength="63" x="2071" y="461.3838">(dto.Email)</text><polygon fill="#343A40" points="2520,493.9375,2530,497.9375,2520,501.9375,2524,497.9375" style="stroke:#343A40;stroke-width:1.0;"/><line style="stroke:#343A40;stroke-width:1.0;" x1="2269" x2="2526" y1="497.9375" y2="497.9375"/><text fill="#000000" font-family="sans-serif" font-size="13" lengthAdjust="spacing" textLength="244" x="2276" y="492.6748">8. _context.Users.FirstOrDefaultAsync(...)</text><polygon fill="#343A40" points="2280,525.2285,2270,529.2285,2280,533.2285,2276,529.2285" style="stroke:#343A40;stroke-width:1.0;"/><line style="stroke:#343A40;stroke-width:1.0;stroke-dasharray:2.0,2.0;" x1="2274" x2="2536" y1="529.2285" y2="529.2285"/><text fill="#000000" font-family="sans-serif" font-size="13" lengthAdjust="spacing" textLength="118" x="2286" y="523.9658">9. Tr&#7843; v&#7873; (user / null)</text><polygon fill="#343A40" points="1936,556.5195,1926,560.5195,1936,564.5195,1932,560.5195" style="stroke:#343A40;stroke-width:1.0;"/><line style="stroke:#343A40;stroke-width:1.0;stroke-dasharray:2.0,2.0;" x1="1930" x2="2263" y1="560.5195" y2="560.5195"/><text fill="#000000" font-family="sans-serif" font-size="13" lengthAdjust="spacing" textLength="125" x="1942" y="555.2568">10. Tr&#7843; v&#7873; (user / null)</text><path d="M1557.5,575.5195 L1615,575.5195 L1615,584.8105 L1605,594.8105 L1554,594.8105 L1554,579.0195 A3.5,3.5 0 0 1 1557.5,575.5195 " fill="#EEEEEE" style="stroke:#696969;stroke-width:1.5;"/><rect fill="none" height="446.3359" rx="3.5" ry="3.5" style="stroke:#696969;stroke-width:1.0;" width="1053.5" x="1554" y="575.5195"/><text fill="#454645" font-family="sans-serif" font-size="13" font-weight="bold" lengthAdjust="spacing" textLength="16" x="1569" y="590.5479">alt</text><text fill="#696969" font-family="sans-serif" font-size="11" font-weight="bold" lengthAdjust="spacing" textLength="104" x="1630" y="589.3896">[Email ch&#432;a t&#7891;n t&#7841;i]</text><polygon fill="#343A40" points="2144,614.1016,2154,618.1016,2144,622.1016,2148,618.1016" style="stroke:#343A40;stroke-width:1.0;"/><line style="stroke:#343A40;stroke-width:1.0;" x1="1925" x2="2150" y1="618.1016" y2="618.1016"/><text fill="#000000" font-family="sans-serif" font-size="13" lengthAdjust="spacing" textLength="212" x="1932" y="612.8389">11. G&#7917;i d&#7919; li&#7879;u (&#7843;nh,...) &#273;&#7875; ph&#226;n t&#237;ch</text><polygon fill="#343A40" points="1936,645.3926,1926,649.3926,1936,653.3926,1932,649.3926" style="stroke:#343A40;stroke-width:1.0;"/><line style="stroke:#343A40;stroke-width:1.0;stroke-dasharray:2.0,2.0;" x1="1930" x2="2160" y1="649.3926" y2="649.3926"/><text fill="#000000" font-family="sans-serif" font-size="13" lengthAdjust="spacing" textLength="160" x="1942" y="644.1299">12. Tr&#7843; v&#7873; k&#7871;t qu&#7843; ph&#226;n t&#237;ch</text><path d="M1567.5,664.3926 L1625,664.3926 L1625,673.6836 L1615,683.6836 L1564,683.6836 L1564,667.8926 A3.5,3.5 0 0 1 1567.5,664.3926 " fill="#EEEEEE" style="stroke:#696969;stroke-width:1.5;"/><rect fill="none" height="302.541" rx="3.5" ry="3.5" style="stroke:#696969;stroke-width:1.0;" width="1033.5" x="1564" y="664.3926"/><text fill="#454645" font-family="sans-serif" font-size="13" font-weight="bold" lengthAdjust="spacing" textLength="16" x="1579" y="679.4209">alt</text><text fill="#696969" font-family="sans-serif" font-size="11" font-weight="bold" lengthAdjust="spacing" textLength="101" x="1640" y="678.2627">[K&#7871;t qu&#7843; AI h&#7907;p l&#7879;]</text><line style="stroke:#343A40;stroke-width:1.0;" x1="1925" x2="1967" y1="706.9746" y2="706.9746"/><line style="stroke:#343A40;stroke-width:1.0;" x1="1967" x2="1967" y1="706.9746" y2="719.9746"/><line style="stroke:#343A40;stroke-width:1.0;" x1="1926" x2="1967" y1="719.9746" y2="719.9746"/><polygon fill="#343A40" points="1936,715.9746,1926,719.9746,1936,723.9746,1932,719.9746" style="stroke:#343A40;stroke-width:1.0;"/><text fill="#000000" font-family="sans-serif" font-size="13" lengthAdjust="spacing" textLength="210" x="1932" y="701.7119">13. Hash m&#7853;t kh&#7849;u (T&#7841;o User entity)</text><polygon fill="#343A40" points="2247,764.5566,2257,768.5566,2247,772.5566,2251,768.5566" style="stroke:#343A40;stroke-width:1.0;"/><line style="stroke:#343A40;stroke-width:1.0;" x1="1925" x2="2253" y1="768.5566" y2="768.5566"/><text fill="#000000" font-family="sans-serif" font-size="13" lengthAdjust="spacing" textLength="46" x="1932" y="746.0029">14. G&#7885;i:</text><text fill="#000000" font-family="sans-serif" font-size="13" font-weight="bold" lengthAdjust="spacing" textLength="107" x="1932" y="763.2939">CreateUserAsync</text><text fill="#000000" font-family="sans-serif" font-size="13" lengthAdjust="spacing" textLength="33" x="2039" y="763.2939">(user)</text><polygon fill="#343A40" points="2520,813.1387,2530,817.1387,2520,821.1387,2524,817.1387" style="stroke:#343A40;stroke-width:1.0;"/><line style="stroke:#343A40;stroke-width:1.0;" x1="2269" x2="2526" y1="817.1387" y2="817.1387"/><text fill="#000000" font-family="sans-serif" font-size="13" lengthAdjust="spacing" textLength="207" x="2276" y="794.585">15. _context.Users.AddAsync(user)</text><text fill="#000000" font-family="sans-serif" font-size="13" lengthAdjust="spacing" textLength="191" x="2276" y="811.876">&amp; _context.SaveChangesAsync()</text><polygon fill="#343A40" points="2280,844.4297,2270,848.4297,2280,852.4297,2276,848.4297" style="stroke:#343A40;stroke-width:1.0;"/><line style="stroke:#343A40;stroke-width:1.0;stroke-dasharray:2.0,2.0;" x1="2274" x2="2536" y1="848.4297" y2="848.4297"/><text fill="#000000" font-family="sans-serif" font-size="13" lengthAdjust="spacing" textLength="98" x="2286" y="843.167">16. X&#225;c nh&#7853;n l&#432;u</text><polygon fill="#343A40" points="1936,875.7207,1926,879.7207,1936,883.7207,1932,879.7207" style="stroke:#343A40;stroke-width:1.0;"/><line style="stroke:#343A40;stroke-width:1.0;stroke-dasharray:2.0,2.0;" x1="1930" x2="2263" y1="879.7207" y2="879.7207"/><text fill="#000000" font-family="sans-serif" font-size="13" lengthAdjust="spacing" textLength="127" x="1942" y="874.458">17. Tr&#7843; v&#7873; User &#273;&#227; t&#7841;o</text><polygon fill="#343A40" points="1658,907.0117,1648,911.0117,1658,915.0117,1654,911.0117" style="stroke:#343A40;stroke-width:1.0;"/><line style="stroke:#343A40;stroke-width:1.0;stroke-dasharray:2.0,2.0;" x1="1652" x2="1919" y1="911.0117" y2="911.0117"/><text fill="#000000" font-family="sans-serif" font-size="13" lengthAdjust="spacing" textLength="244" x="1664" y="905.749">18. Tr&#7843; v&#7873; Success (Task&lt;IActionResult&gt;)</text><line style="stroke:#696969;stroke-width:1.0;stroke-dasharray:2.0,2.0;" x1="1564" x2="2597.5" y1="920.0117" y2="920.0117"/><text fill="#696969" font-family="sans-serif" font-size="11" font-weight="bold" lengthAdjust="spacing" textLength="139" x="1569" y="931.8818">[K&#7871;t qu&#7843; AI kh&#244;ng h&#7907;p l&#7879;]</text><polygon fill="#343A40" points="1658,954.9336,1648,958.9336,1658,962.9336,1654,958.9336" style="stroke:#343A40;stroke-width:1.0;"/><line style="stroke:#343A40;stroke-width:1.0;stroke-dasharray:2.0,2.0;" x1="1652" x2="1919" y1="958.9336" y2="958.9336"/><text fill="#000000" font-family="sans-serif" font-size="13" lengthAdjust="spacing" textLength="200" x="1664" y="953.6709">19. Tr&#7843; v&#7873; Error (400 Bad Request)</text><line style="stroke:#696969;stroke-width:1.0;stroke-dasharray:2.0,2.0;" x1="1554" x2="2607.5" y1="974.9336" y2="974.9336"/><text fill="#696969" font-family="sans-serif" font-size="11" font-weight="bold" lengthAdjust="spacing" textLength="90" x="1559" y="986.8037">[Email &#273;&#227; t&#7891;n t&#7841;i]</text><polygon fill="#343A40" points="1658,1009.8555,1648,1013.8555,1658,1017.8555,1654,1013.8555" style="stroke:#343A40;stroke-width:1.0;"/><line style="stroke:#343A40;stroke-width:1.0;stroke-dasharray:2.0,2.0;" x1="1652" x2="1919" y1="1013.8555" y2="1013.8555"/><text fill="#000000" font-family="sans-serif" font-size="13" lengthAdjust="spacing" textLength="168" x="1664" y="1008.5928">20. Tr&#7843; v&#7873; Error (409 Conflict)</text><polygon fill="#343A40" points="1259,1048.1465,1249,1052.1465,1259,1056.1465,1255,1052.1465" style="stroke:#343A40;stroke-width:1.0;"/><line style="stroke:#343A40;stroke-width:1.0;stroke-dasharray:2.0,2.0;" x1="1253" x2="1641" y1="1052.1465" y2="1052.1465"/><text fill="#000000" font-family="sans-serif" font-size="13" lengthAdjust="spacing" textLength="267" x="1265" y="1046.8838">21. HTTP Response (Ok/Conflict/BadRequest)</text><polygon fill="#343A40" points="927,1079.4375,917,1083.4375,927,1087.4375,923,1083.4375" style="stroke:#343A40;stroke-width:1.0;"/><line style="stroke:#343A40;stroke-width:1.0;stroke-dasharray:2.0,2.0;" x1="921" x2="1242" y1="1083.4375" y2="1083.4375"/><text fill="#000000" font-family="sans-serif" font-size="13" lengthAdjust="spacing" textLength="298" x="933" y="1078.1748">22. HttpResponseMessage (IsSuccessStatusCode)</text><polygon fill="#343A40" points="723,1110.7285,713,1114.7285,723,1118.7285,719,1114.7285" style="stroke:#343A40;stroke-width:1.0;"/><line style="stroke:#343A40;stroke-width:1.0;stroke-dasharray:2.0,2.0;" x1="717" x2="910" y1="1114.7285" y2="1114.7285"/><text fill="#000000" font-family="sans-serif" font-size="13" lengthAdjust="spacing" textLength="139" x="729" y="1109.4658">23. Tr&#7843; v&#7873; k&#7871;t qu&#7843; (bool)</text><polygon fill="#343A40" points="384,1142.0195,374,1146.0195,384,1150.0195,380,1146.0195" style="stroke:#343A40;stroke-width:1.0;"/><line style="stroke:#343A40;stroke-width:1.0;stroke-dasharray:2.0,2.0;" x1="378" x2="706" y1="1146.0195" y2="1146.0195"/><text fill="#000000" font-family="sans-serif" font-size="13" lengthAdjust="spacing" textLength="276" x="390" y="1140.7568">24. Tr&#7843; v&#7873; Json(new { success = true/false, ... })</text><polygon fill="#343A40" points="56,1173.3105,46,1177.3105,56,1181.3105,52,1177.3105" style="stroke:#343A40;stroke-width:1.0;"/><line style="stroke:#343A40;stroke-width:1.0;stroke-dasharray:2.0,2.0;" x1="50" x2="367" y1="1177.3105" y2="1177.3105"/><text fill="#000000" font-family="sans-serif" font-size="13" lengthAdjust="spacing" textLength="235" x="62" y="1172.0479">25. Hi&#7875;n th&#7883; th&#244;ng b&#225;o (Th&#224;nh c&#244;ng / L&#7895;i)</text><!--SRC=[dLTDRzj64BtpLqnJeAMSwCkMQyTe0iXMRAjfOYDIq09D4Qp85RaGjLJ8fLqXo2788IY20WroA8eYWDqW2D8sI5hqKWb53pBoF_XFEhka99AYdRG-oE9ozisRsJUpem-4JViK3bZ78rneWWc7GelU2IWtA3GOiJpIXoASV7_oW5lGc_mDOdB4e6UxuUWPrxIFuT8bV1kE7t4Rk6MVl2ImJpp133P0H1yEml5F30JzHi0oc9C_4ENaSJX-e3wVn4_t0uJHY25S3sxwr0FYmxdhrjituVWfmrr_SUiMXtDQnmsuIRmXt6mganr6N31PE7x8GR_PB2YZmTmzRBdzliktN2uyrt5YuEpYBQv_GJjG7mmAwTsIIejw1yoWjwM5tDnCB9wwSOS8UaY6QaDzlpbzNg0diVmCkymQ-b0PkSOCp_KZlsVGlDRAO_akX7fJsiO4was8ddBftg03rsTuKCEve_aQ-fe_e1EJ2D8XFaffSnPSeoEZGq6WSID-ZwQQtsCSlQ7U_Aa0xsg0VmazRRgUIRqjrq6XV5Yfh7MwtGKJOlGiJmebDkkkTozsYJAhIuMbC9RNoLfjLRtSZCMLUcyQAwlPzmiEkjrAjnevy3ptC5vUgQsGMaMx9ulawkILOOCickCeZN0mEP8gvXRAH8JZNsKTZ5u4e5ievzUu7Wmdlt0q-msBRV8d5eeLZbxpk9xwrFU9HGkoPjW1gak19fwQcgRS52_Zzmsebk2w7OvU3K14O89XnMm5ld3xylmivWlv7_FkYqPxho19jyBnAp33yNEqFty-Bbla-hlw-YEkplmbLSAb8wvXSEXyeG0HQ0EMIx23u0oyoEC6tE9BIrCQIqlwLzkUszzslVxNS2R91NWPRwPgbSSLvV4x5ddAOjRz8JVGhIdSGfIu901YJWjQOTLosU_ljTfG3cJrbeqOl-ZDGWAzY-4KPK6WYobUJDVF9cYr11Zz8V7CgHEbZtzuFl__aB6ikqp2i7ye0f_yptpX_XWnqIWKubeASOSAQRGvlD8dp4dWbTJ2J7y4d73y0svgo4j08id2AHPHnvW-mtPd6YoRT2P7Zs7jM5g61XB3DgJ8h9VWjX5rePBAI6cRURxOyngqIm97A49wgLGgQBYbk1WICjY0YoLeUtWFogAy3xeyUoW33nndeNxGFgT-4fIJ5MH9TIsmNpmfHQ9QEOi5SGIeZ6AkthuXqlqJZf-ZOwOQrkBPpUu2bQXgTIfsKxObHzwrsAJavMzVaFc9mnhOavyHLxQvg15EKKwblPoYtKDn2xWJo8KabWAJGLnD6E0DPOVZPmEfZOVA8Z-Kz0hwn2wmItmR-jYX1FRLSFGIWsbZDjoeArEE8z2mCCDy1tXMuzLQkcmyYaSh3QS2buUJWtwsrbCaylLSNLqGTDqq8nKhdyZdexb5YnpGBPjmY_gHpPpJ6NAlObFuSd9in1qUdBTlWlnClOzirrBdhx9_ydZoJ6dJVVS1v7JE27SzXTiA30FlIZnaulS-RU80m5n-W_fOuvUZeAc3uqb6NV6D-nuYEvL6kZTSmRd00xrMgS0cCI7ko341RcgAH5IdSHBEBjFJt2vNyjrUn8kOTnrce4_f3xlJbZn9XtMfmpW5FUtXGkOO2pDQkSshP-E8d-X1nM81FUnWitYAVMSoaWC7mM_X-5imSCpXgSvdgnK3VnjWhZ5YD1c_aEQ1B8V56ojn7qT1Ou_QRRVtCQt-mEMOINslLvu6NCQ4p_8zltXp1eK83FlIhX23ATQrQD82lUd7Mce98W8aPDAyMI5lvec0LqvjU7h7TPtSQKQDR_7-Mch_PxxBTKuFuIxuiSOluHa4jDmbAAOBWCqPxac6pLcm289zOXUFvG6A2q_ZqNGSx4om0-fjUtA4F-CCjLI6psNwrKtMe8d9CXfTPRtAOtU2w6USxU9UgTZdGZEJvgadEQJ-2m00]--></g></svg>